{
  "accessors": [
    {
      "bufferView": 2,
      "componentType": 5126,
      "count": 8391,
      "max": [
        1.6157399415969849,
        1.759369969367981,
        3.2286999225616455
      ],
      "min": [
        -5.834980010986328,
        -5.5769500732421875,
        -1.0003199577331543
      ],
      "type": "VEC3"
    },
    {
      "bufferView": 2,
      "byteOffset": 100692,
      "componentType": 5126,
      "count": 8391,
      "max": [
        1.0,
        1.0,
        1.0
      ],
      "min": [
        -1.0,
        -1.0,
        -1.0
      ],
      "type": "VEC3"
    },
    {
      "bufferView": 1,
      "componentType": 5126,
      "count": 8391,
      "max": [
        0.9795899987220764,
        0.656719982624054
      ],
      "min": [
        0.08352000266313553,
        0.05795000120997429
      ],
      "type": "VEC2"
    },
    {
      "bufferView": 0,
      "componentType": 5125,
      "count": 19473,
      "type": "SCALAR"
    },
    {
      "bufferView": 2,
      "byteOffset": 201384,
      "componentType": 5126,
      "count": 360,
      "max": [
        1.0,
        377.6948547363281,
        1.688979983329773
      ],
      "min": [
        -5.505469799041748,
        -647.0685424804688,
        -1.4333100318908691
      ],
      "type": "VEC3"
    },
    {
      "bufferView": 2,
      "byteOffset": 205704,
      "componentType": 5126,
      "count": 360,
      "max": [
        1.0,
        1.0,
        1.0
      ],
      "min": [
        -1.0,
        -1.0,
        -1.0
      ],
      "type": "VEC3"
    },
    {
      "bufferView": 0,
      "byteOffset": 77892,
      "componentType": 5125,
      "count": 540,
      "type": "SCALAR"
    },
    {
      "bufferView": 2,
      "byteOffset": 210024,
      "componentType": 5126,
      "count": 100,
      "max": [
        1.0,
        1.0,
        0.0
      ],
      "min": [
        -1.0,
        -1.0,
        -0.04583999887108803
      ],
      "type": "VEC3"
    },
    {
      "bufferView": 2,
      "byteOffset": 211224,
      "componentType": 5126,
      "count": 100,
      "max": [
        1.0,
        1.0,
        1.0
      ],
      "min": [
        -1.0,
        -1.0,
        -1.0
      ],
      "type": "VEC3"
    },
    {
      "bufferView": 1,
      "byteOffset": 67128,
      "componentType": 5126,
      "count": 100,
      "max": [
        0.46055999398231506,
        0.4427500069141388
      ],
      "min": [
        0.4510999917984009,
        0.4332999885082245
      ],
      "type": "VEC2"
    },
    {
      "bufferView": 0,
      "byteOffset": 80052,
      "componentType": 5125,
      "count": 318,
      "type": "SCALAR"
    }
  ],
  "asset": {
    "extras": {
      "author": "Ralph_SwH (https://sketchfab.com/Ralph_SwH)",
      "license": "CC-BY-4.0 (http://creativecommons.org/licenses/by/4.0/)",
      "source": "https://sketchfab.com/3d-models/modern-house-low-poly-10b2bb7a9e3f4491b5caa278eb4aae4a",
      "title": "Modern House Low Poly"
    },
    "generator": "Sketchfab-12.65.0",
    "version": "2.0"
  },
  "bufferViews": [
    {
      "buffer": 0,
      "byteLength": 81324,
      "name": "floatBufferViews",
      "target": 34963
    },
    {
      "buffer": 0,
      "byteLength": 67928,
      "byteOffset": 81324,
      "byteStride": 8,
      "name": "floatBufferViews",
      "target": 34962
    },
    {
      "buffer": 0,
      "byteLength": 212424,
      "byteOffset": 149252,
      "byteStride": 12,
      "name": "floatBufferViews",
      "target": 34962
    }
  ],
  "buffers": [
    {
      "byteLength": 361676,
      "uri": "scene.bin"
    }
  ],
  "extensionsUsed": [
    "KHR_materials_transmission"
  ],
  "images": [
    {
      "uri": "textures/Material_baseColor.png"
    }
  ],
  "materials": [
    {
      "doubleSided": true,
      "name": "Material",
      "pbrMetallicRoughness": {
        "baseColorTexture": {
          "index": 0
        },
        "metallicFactor": 0.6541539634146342,
        "roughnessFactor": 0.6
      }
    },
    {
      "alphaMode": "BLEND",
      "doubleSided": true,
      "extensions": {
        "KHR_materials_transmission": {
          "transmissionFactor": 0.4
        }
      },
      "name": "Material.001",
      "pbrMetallicRoughness": {
        "baseColorFactor": [
          0.006725168771536401,
          0.1475826229478082,
          0.10433893520203952,
          0.6
        ],
        "metallicFactor": 0.5443978658536586,
        "roughnessFactor": 0.6
      }
    }
  ],
  "meshes": [
    {
      "name": "Cube_0",
      "primitives": [
        {
          "attributes": {
            "NORMAL": 1,
            "POSITION": 0,
            "TEXCOORD_0": 2
          },
          "indices": 3,
          "material": 0,
          "mode": 4
        }
      ]
    },
    {
      "name": "Cubo_0",
      "primitives": [
        {
          "attributes": {
            "NORMAL": 5,
            "POSITION": 4
          },
          "indices": 6,
          "material": 1,
          "mode": 4
        }
      ]
    },
    {
      "name": "Plano_0",
      "primitives": [
        {
          "attributes": {
            "NORMAL": 8,
            "POSITION": 7,
            "TEXCOORD_0": 9
          },
          "indices": 10,
          "material": 0,
          "mode": 4
        }
      ]
    }
  ],
  "nodes": [
    {
      "children": [
        1
      ],
      "matrix": [
        1.0,
        0.0,
        0.0,
        0.0,
        0.0,
        2.220446049250313e-16,
        -1.0,
        0.0,
        0.0,
        1.0,
        2.220446049250313e-16,
        0.0,
        0.0,
        0.0,
        0.0,
        1.0
      ],
      "name": "Sketchfab_model"
    },
    {
      "children": [
        2,
        4,
        6,
        8
      ],
      "name": "Root"
    },
    {
      "children": [
        3
      ],
      "matrix": [
        1.44835,
        0.0,
        0.0,
        0.0,
        0.0,
        1.9164999999999999,
        0.0,
        0.0,
        0.0,
        0.0,
        1.44835,
        0.0,
        3.6215200000000003,
        3.74888,
        1.44945,
        1.0
      ],
      "name": "Cube"
    },
    {
      "mesh": 0,
      "name": "Cube_0"
    },
    {
      "children": [
        5
      ],
      "matrix": [
        1.0,
        0.0,
        0.0,
        0.0,
        0.0,
        1.0,
        0.0,
        0.0,
        0.0,
        0.0,
        1.0,
        0.0,
        4.08267,
        9.56806,
        8.41539,
        1.0
      ],
      "name": "Sol"
    },
    {
      "name": "Sol"
    },
    {
      "children": [
        7
      ],
      "matrix": [
        1.40855,
        0.0,
        0.0,
        0.0,
        0.0,
        0.013580000000000004,
        0.0,
        0.0,
        0.0,
        0.0,
        0.26256,
        0.0,
        3.63498,
        1.87726,
        3.15894,
        1.0
      ],
      "name": "Cubo"
    },
    {
      "mesh": 1,
      "name": "Cubo_0"
    },
    {
      "children": [
        9
      ],
      "matrix": [
        7.9117500000000005,
        0.0,
        0.0,
        0.0,
        0.0,
        7.9117500000000005,
        0.0,
        0.0,
        0.0,
        0.0,
        7.9117500000000005,
        0.0,
        0.46889000000000003,
        0.0,
        0.0,
        1.0
      ],
      "name": "Plano"
    },
    {
      "mesh": 2,
      "name": "Plano_0"
    }
  ],
  "samplers": [
    {
      "magFilter": 9729,
      "minFilter": 9987,
      "wrapS": 10497,
      "wrapT": 10497
    }
  ],
  "scene": 0,
  "scenes": [
    {
      "name": "Sketchfab_Scene",
      "nodes": [
        0
      ]
    }
  ],
  "textures": [
    {
      "sampler": 0,
      "source": 0
    }
  ]
}
